<svg width="24" height="22" viewBox="0 0 24 22" fill="none" xmlns="http://www.w3.org/2000/svg">
<path id="Union" fill-rule="evenodd" clip-rule="evenodd" d="M5.00085 8.99661C5.28114 8.43777 5.72798 7.94557 6.34137 7.5992L19.0273 0.435664C21.2494 -0.819103 23.9996 0.786337 23.9996 3.33821V17.6653C23.9996 20.2171 21.2494 21.8226 19.0273 20.5678L6.34137 13.4043C5.72826 13.0581 5.28155 12.5662 5.00123 12.0076L5.00206 18.5035C5.00224 19.8842 3.88309 21.0036 2.50238 21.0038C1.12167 21.004 0.00223732 19.8848 0.00206184 18.5041L1.52588e-05 2.50064C-0.000162125 1.11993 1.11898 0.000496183 2.49969 0.000319598C3.88041 0.000143014 4.99984 1.11929 5.00002 2.5L5.00085 8.99661Z" fill="#808080"/>
</svg>
