<svg width="27" height="23" viewBox="0 0 27 23" fill="none" xmlns="http://www.w3.org/2000/svg">
<g id="shuffle">
<path id="Line 4" d="M23.9302 8L21.0938 13.1658L26.8008 12.9404L23.9302 8ZM1.79274 18.8321C11.6877 19.0175 17.2641 18.7768 20.3857 17.8591C21.9644 17.395 22.9946 16.7364 23.6207 15.8002C24.2387 14.8761 24.4026 13.7672 24.4396 12.5466L23.4516 12.5508C23.416 13.7255 23.2567 14.583 22.8111 15.2494C22.3735 15.9038 21.5996 16.4598 20.1438 16.8878C17.1963 17.7543 11.7821 18.0071 1.84554 17.8208L1.79274 18.8321Z" fill="#808080"/>
<path id="Line 5" d="M3.06836 14.8796L5.90472 9.71376L0.197713 9.93919L3.06836 14.8796ZM25.2058 4.04756C15.3108 3.86209 9.7344 4.10282 6.61288 5.02047C5.03415 5.48458 4.0039 6.14324 3.37788 7.07937C2.75988 8.00351 2.59593 9.11245 2.55892 10.333L3.54693 10.3289C3.58256 9.15407 3.74179 8.29665 4.18744 7.63025C4.62507 6.97584 5.39894 6.41978 6.85473 5.99181C9.80224 5.12532 15.2164 4.87252 25.153 5.05877L25.2058 4.04756Z" fill="#808080"/>
</g>
</svg>
