<svg width="24" height="22" viewBox="0 0 24 22" fill="none" xmlns="http://www.w3.org/2000/svg">
<path id="Union" fill-rule="evenodd" clip-rule="evenodd" d="M18.9984 8.99661C18.7181 8.43777 18.2713 7.94557 17.6579 7.5992L4.97198 0.435664C2.74991 -0.819103 -0.000366211 0.786337 -0.000366211 3.33821V17.6653C-0.000366211 20.2171 2.74991 21.8226 4.97198 20.5678L17.6579 13.4043C18.271 13.0581 18.7177 12.5662 18.998 12.0076L18.9972 18.5035C18.997 19.8842 20.1162 21.0036 21.4969 21.0038C22.8776 21.004 23.997 19.8848 23.9972 18.5041L23.9993 2.50064C23.9994 1.11993 22.8803 0.000496183 21.4996 0.000319598C20.1189 0.000143014 18.9994 1.11929 18.9993 2.5L18.9984 8.99661Z" fill="#808080"/>
</svg>
