<svg width="48" height="48" viewBox="0 0 48 48" fill="none" xmlns="http://www.w3.org/2000/svg">
<g id="Frame">
<path id="Vector" fill-rule="evenodd" clip-rule="evenodd" d="M43.1996 24C43.1996 29.0922 41.1768 33.9758 37.5761 37.5765C33.9754 41.1772 29.0918 43.2 23.9996 43.2C18.9075 43.2 14.0239 41.1772 10.4232 37.5765C6.82247 33.9758 4.79962 29.0922 4.79962 24C4.79962 18.9078 6.82247 14.0243 10.4232 10.4236C14.0239 6.82285 18.9075 4.8 23.9996 4.8C29.0918 4.8 33.9754 6.82285 37.5761 10.4236C41.1768 14.0243 43.1996 18.9078 43.1996 24ZM16.7996 19.2C16.7996 18.5635 17.0525 17.953 17.5026 17.5029C17.9527 17.0529 18.5631 16.8 19.1996 16.8C19.8361 16.8 20.4466 17.0529 20.8967 17.5029C21.3468 17.953 21.5996 18.5635 21.5996 19.2V28.8C21.5996 29.4365 21.3468 30.047 20.8967 30.4971C20.4466 30.9471 19.8361 31.2 19.1996 31.2C18.5631 31.2 17.9527 30.9471 17.5026 30.4971C17.0525 30.047 16.7996 29.4365 16.7996 28.8V19.2ZM28.7996 16.8C28.1631 16.8 27.5527 17.0529 27.1026 17.5029C26.6525 17.953 26.3996 18.5635 26.3996 19.2V28.8C26.3996 29.4365 26.6525 30.047 27.1026 30.4971C27.5527 30.9471 28.1631 31.2 28.7996 31.2C29.4361 31.2 30.0466 30.9471 30.4967 30.4971C30.9468 30.047 31.1996 29.4365 31.1996 28.8V19.2C31.1996 18.5635 30.9468 17.953 30.4967 17.5029C30.0466 17.0529 29.4361 16.8 28.7996 16.8Z" fill="white"/>
</g>
</svg>
