<svg width="28" height="19" viewBox="0 0 28 19" fill="none" xmlns="http://www.w3.org/2000/svg">
<g id="repeat">
<path id="Line 2" d="M28 3.06945L22.9742 0.227888L23.0262 6.00116L28 3.06945ZM1 15.9305C0.95552 16.4286 0.955709 16.4286 0.955948 16.4286C0.956097 16.4286 0.956388 16.4286 0.956685 16.4287C0.957279 16.4287 0.958077 16.4288 0.95908 16.4289C0.961085 16.4291 0.963904 16.4293 0.967524 16.4296C0.974765 16.4302 0.985211 16.4311 0.99876 16.4322C1.02586 16.4343 1.06537 16.4374 1.11647 16.441C1.21866 16.4482 1.36726 16.4576 1.55565 16.4668C1.93231 16.4853 2.46873 16.5028 3.11186 16.4996C4.39544 16.4933 6.1164 16.4043 7.84499 16.0698C9.56625 15.7367 11.3397 15.1519 12.693 14.1246C14.0674 13.0811 15 11.5841 15 9.5H14C14 11.234 13.2451 12.4499 12.0883 13.3281C10.9103 14.2224 9.30875 14.768 7.65501 15.088C6.0086 15.4066 4.35456 15.4934 3.10689 15.4996C2.48439 15.5027 1.96613 15.4857 1.6045 15.468C1.42375 15.4592 1.28232 15.4502 1.18675 15.4435C1.13898 15.4401 1.10268 15.4373 1.07869 15.4354C1.0667 15.4344 1.05778 15.4337 1.05205 15.4332C1.04918 15.4329 1.0471 15.4328 1.04584 15.4327C1.04521 15.4326 1.04477 15.4326 1.04455 15.4325C1.04443 15.4325 1.04442 15.4325 1.04436 15.4325C1.04439 15.4325 1.04448 15.4325 1 15.9305ZM15 9.5C15 7.38746 16.1245 6.0241 17.7687 5.11888C19.4375 4.20011 21.6057 3.781 23.5444 3.60804L23.4556 2.61199C21.4678 2.78932 19.136 3.22454 17.2864 4.24287C15.4122 5.27473 14 6.93121 14 9.5H15Z" fill="#808080"/>
<path id="Line 3" d="M28 15.9305L22.9742 18.7721L23.0262 12.9988L28 15.9305ZM1 3.06945C0.95552 2.57143 0.955709 2.57142 0.955948 2.57139C0.956097 2.57138 0.956388 2.57136 0.956685 2.57133C0.957279 2.57128 0.958077 2.57121 0.95908 2.57112C0.961085 2.57095 0.963904 2.5707 0.967524 2.5704C0.974765 2.56978 0.985211 2.56891 0.99876 2.56783C1.02586 2.56565 1.06537 2.56261 1.11647 2.55901C1.21866 2.55181 1.36726 2.54237 1.55565 2.53315C1.93231 2.51473 2.46873 2.49719 3.11186 2.50038C4.39544 2.50675 6.1164 2.59572 7.84499 2.93023C9.56625 3.26331 11.3397 3.84807 12.693 4.87543C14.0674 5.91886 15 7.41586 15 9.5H14C14 7.766 13.2451 6.55011 12.0883 5.67191C10.9103 4.77764 9.30875 4.23203 7.65501 3.91201C6.0086 3.59342 4.35456 3.50656 3.10689 3.50037C2.48439 3.49728 1.96613 3.51427 1.6045 3.53196C1.42375 3.5408 1.28232 3.5498 1.18675 3.55654C1.13898 3.5599 1.10268 3.5627 1.07869 3.56463C1.0667 3.56559 1.05778 3.56633 1.05205 3.56682C1.04918 3.56706 1.0471 3.56724 1.04584 3.56735C1.04521 3.5674 1.04477 3.56744 1.04455 3.56746C1.04443 3.56747 1.04442 3.56747 1.04436 3.56748C1.04439 3.56748 1.04448 3.56747 1 3.06945ZM15 9.5C15 11.6125 16.1245 12.9759 17.7687 13.8811C19.4375 14.7999 21.6057 15.219 23.5444 15.392L23.4556 16.388C21.4678 16.2107 19.136 15.7755 17.2864 14.7571C15.4122 13.7253 14 12.0688 14 9.5H15Z" fill="#808080"/>
</g>
</svg>
